<svg width="25" height="25" viewBox="0 0 25 25" fill="none" xmlns="http://www.w3.org/2000/svg">
<rect width="25" height="25" fill="#BA68C8"/>
<path d="M21.0938 23.4375H3.90625C2.61182 23.4375 1.5625 22.3882 1.5625 21.0938V3.90625C1.5625 2.61182 2.61182 1.5625 3.90625 1.5625H21.0938C22.3882 1.5625 23.4375 2.61182 23.4375 3.90625V21.0938C23.4375 22.3882 22.3882 23.4375 21.0938 23.4375ZM11.0993 18.6495L20.0837 9.66509C20.3888 9.36001 20.3888 8.86533 20.0837 8.56025L18.9789 7.45542C18.6738 7.15034 18.1791 7.15029 17.874 7.45542L10.5469 14.7825L7.12603 11.3616C6.82095 11.0565 6.32627 11.0565 6.02114 11.3616L4.91631 12.4665C4.61123 12.7715 4.61123 13.2662 4.91631 13.5713L9.99443 18.6494C10.2996 18.9546 10.7942 18.9546 11.0993 18.6495Z" fill="#FAFAFA"/>
</svg>
