<svg width="26" height="21" viewBox="0 0 26 21" fill="none" xmlns="http://www.w3.org/2000/svg">
<g clip-path="url(#clip0_13_2426)">
<path d="M24.6857 8.44696C24.871 8.32591 25.1467 8.43915 25.1467 8.63047V16.6155C25.1467 17.6502 24.1249 18.4897 22.8654 18.4897H3.0946C1.83516 18.4897 0.813354 17.6502 0.813354 16.6155V8.63438C0.813354 8.43915 1.08425 8.32982 1.27436 8.45086C2.33894 9.13027 3.75046 9.9932 8.59812 12.8866C9.60092 13.4879 11.2928 14.753 12.98 14.7452C14.6767 14.7569 16.4019 13.4644 17.3667 12.8866C22.2143 9.9932 23.6211 9.12637 24.6857 8.44696ZM12.98 13.4918C14.0826 13.5074 15.67 12.3516 16.4684 11.8752C22.7751 8.11506 23.2552 7.78707 24.7094 6.84995C24.9851 6.67424 25.1467 6.40091 25.1467 6.11197V5.37009C25.1467 4.33535 24.1249 3.49585 22.8654 3.49585H3.0946C1.83516 3.49585 0.813354 4.33535 0.813354 5.37009V6.11197C0.813354 6.40091 0.974943 6.67034 1.25059 6.84995C2.70489 7.78316 3.1849 8.11506 9.49161 11.8752C10.29 12.3516 11.8774 13.5074 12.98 13.4918Z" fill="#722080"/>
</g>
<defs>
<clipPath id="clip0_13_2426">
<rect x="0.813354" y="0.996826" width="24.3333" height="19.9918" rx="9.99592" fill="white"/>
</clipPath>
</defs>
</svg>
