<svg width="40" height="40" viewBox="0 0 40 40" fill="none" xmlns="http://www.w3.org/2000/svg">
<circle cx="20" cy="20" r="20" fill="white"/>
<g clip-path="url(#clip0_16_2469)">
<rect width="25" height="25" transform="translate(7 8)" fill="#FAFAFA"/>
<path d="M31.4141 20.7832C31.4141 27.6924 26.6826 32.6094 19.6953 32.6094C12.9961 32.6094 7.58594 27.1992 7.58594 20.5C7.58594 13.8008 12.9961 8.39062 19.6953 8.39062C22.957 8.39062 25.7012 9.58691 27.8154 11.5596L24.5195 14.7285C20.208 10.5684 12.1904 13.6934 12.1904 20.5C12.1904 24.7236 15.5645 28.1465 19.6953 28.1465C24.4902 28.1465 26.2871 24.709 26.5703 22.9268H19.6953V18.7617H31.2236C31.3359 19.3818 31.4141 19.9775 31.4141 20.7832Z" fill="#BA68C8"/>
</g>
<defs>
<clipPath id="clip0_16_2469">
<rect width="25" height="25" fill="white" transform="translate(7 8)"/>
</clipPath>
</defs>
</svg>
