<svg width="25" height="20" viewBox="0 0 25 20" fill="none" xmlns="http://www.w3.org/2000/svg">
<path d="M21.0938 8.75H19.9219V5.9375C19.9219 2.66406 16.5918 0 12.5 0C8.4082 0 5.07812 2.66406 5.07812 5.9375V8.75H3.90625C2.6123 8.75 1.5625 9.58984 1.5625 10.625V18.125C1.5625 19.1602 2.6123 20 3.90625 20H21.0938C22.3877 20 23.4375 19.1602 23.4375 18.125V10.625C23.4375 9.58984 22.3877 8.75 21.0938 8.75ZM16.0156 8.75H8.98438V5.9375C8.98438 4.38672 10.5615 3.125 12.5 3.125C14.4385 3.125 16.0156 4.38672 16.0156 5.9375V8.75Z" fill="#722080"/>
</svg>
