<svg width="40" height="40" viewBox="0 0 40 40" fill="none" xmlns="http://www.w3.org/2000/svg">
<circle cx="20" cy="20" r="20" fill="white"/>
<path d="M30.4302 15.4079C30.446 15.63 30.446 15.8521 30.446 16.0742C30.446 22.8476 25.2906 30.6522 15.868 30.6522C12.9651 30.6522 10.2684 29.8114 8 28.3521C8.41245 28.3997 8.80898 28.4155 9.2373 28.4155C11.6326 28.4155 13.8375 27.6065 15.5983 26.2265C13.3458 26.1789 11.4581 24.7036 10.8077 22.6731C11.125 22.7207 11.4422 22.7524 11.7754 22.7524C12.2354 22.7524 12.6955 22.689 13.1237 22.578C10.776 22.102 9.01519 20.0399 9.01519 17.5494V17.486C9.69727 17.8667 10.4905 18.1046 11.3312 18.1363C9.95107 17.2163 9.04692 15.6458 9.04692 13.8692C9.04692 12.9174 9.30068 12.045 9.74487 11.2835C12.2671 14.3927 16.0583 16.4231 20.3096 16.6452C20.2303 16.2645 20.1827 15.868 20.1827 15.4714C20.1827 12.6478 22.4669 10.3477 25.3064 10.3477C26.7816 10.3477 28.1141 10.9663 29.05 11.9657C30.208 11.7436 31.3184 11.3153 32.302 10.7284C31.9212 11.9181 31.1122 12.9175 30.0494 13.552C31.0805 13.441 32.0799 13.1554 32.9999 12.7588C32.302 13.774 31.4295 14.6782 30.4302 15.4079Z" fill="#BA68C8"/>
</svg>
