<svg width="25" height="21" viewBox="0 0 25 21" fill="none" xmlns="http://www.w3.org/2000/svg">
<g clip-path="url(#clip0_13_2412)">
<rect y="0.395752" width="25" height="19.9918" rx="9.99592" fill="white"/>
<path d="M19.0312 6.01846C19.0312 8.748 16.2158 11.1412 12.5 11.1412C8.78422 11.1412 5.96875 8.748 5.96875 6.01846C5.96875 3.28891 8.78422 0.895752 12.5 0.895752C16.2158 0.895752 19.0312 3.28891 19.0312 6.01846ZM12.5 14.0154C13.796 14.0154 15.0307 13.79 16.1474 13.3907H18.75C22.0361 13.3907 24.5 15.5027 24.5 17.8886V18.5134C24.5 19.1734 23.7841 19.8876 22.6562 19.8876H2.34375C1.21586 19.8876 0.5 19.1734 0.5 18.5134V17.8886C0.5 15.5027 2.9639 13.3907 6.25 13.3907H8.85296C9.97335 13.7897 11.2034 14.0154 12.5 14.0154Z" fill="#722080" stroke="#722080"/>
</g>
<defs>
<clipPath id="clip0_13_2412">
<rect y="0.395752" width="25" height="19.9918" rx="9.99592" fill="white"/>
</clipPath>
</defs>
</svg>
